PathFileType	4	(X/Y/Z)	pose2sim_0-675.trc
DataRate	CameraRate	NumFrames	NumMarkers	Units	OrigDataRate	OrigDataStartFrame	OrigNumFrames
50	50	5	22	m	50	422	676
Frame#	Time	Hip			RHip			RKnee			RAnkle			RBigToe			RSmallToe			RHeel			LHip			LKnee			LAnkle			LBigToe			LSmallToe			LHeel			Neck			Head			Nose			RShoulder			RElbow			RWrist			LShoulder			LElbow			LWrist			
		X1	Y1	Z1	X2	Y2	Z2	X3	Y3	Z3	X4	Y4	Z4	X5	Y5	Z5	X6	Y6	Z6	X7	Y7	Z7	X8	Y8	Z8	X9	Y9	Z9	X10	Y10	Z10	X11	Y11	Z11	X12	Y12	Z12	X13	Y13	Z13	X14	Y14	Z14	X15	Y15	Z15	X16	Y16	Z16	X17	Y17	Z17	X18	Y18	Z18	X19	Y19	Z19	X20	Y20	Z20	X21	Y21	Z21	X22	Y22	Z22	
422	8.44	0.11187459474368065	0.7906559900455045	-0.023681007766734048	0.026235777040463988	0.7796077941493982	-0.014379484417778247	-0.022066821216899426	0.41819999871788327	-0.04522610416104059	-0.07186770451380287	0.0737771741062952	-0.07013126855103202	-0.09486836510443608	0.03728308332579325	0.0703772554113881	-0.13222024090150153	0.0358597102814111	0.029626338459430853	-0.07139715836720675	0.038798503523344824	-0.10397095868147062	0.20445048420290954	0.7791685477289996	-0.032071137337396485	0.25343783645200246	0.4131734383146227	-0.07044570403098736	0.2808526118885064	0.07655084472152386	-0.093319209912501	0.32298552393325963	0.03745156071919986	0.0405515327629641	0.3524014575972897	0.037522668164329934	-0.006763701634100026	0.2665979256827938	0.035848636915886724	-0.1166670993843656	0.13006255104333375	1.2890773180684367	-0.0278091265959734	0.14035614334120974	1.5032014942230512	-0.042568905509880565	0.15279731644391903	1.4019931871676365	0.04755588432641878	-0.018622334241371157	1.2112249722284656	-0.016645113776737944	-0.09349805749892336	1.0018197663132349	0.018280846594147544	-0.09449061034654521	0.9514811282108047	0.21924749620787623	0.27194459735057197	1.1994785400833758	-0.045483568880889905	0.3364198051390345	0.993967653141965	-0.042759963020003296	0.35960997920389837	0.9646345612927765	0.18739222690397242
423	8.46	0.11381990371773411	0.7904862331077266	-0.021755571002211014	0.025741943116642914	0.7795920130485472	-0.012518139170476415	-0.02544278752935073	0.4154587869509182	-0.046235016277511275	-0.07405811141831478	0.07511123637510625	-0.07322844479266097	-0.09015828086533859	0.035128143697436456	0.06860803224720062	-0.12595356321956577	0.03632118503393402	0.034451585959359265	-0.07064921460178829	0.03906331157919968	-0.10252195993495318	0.20516893387106314	0.7790203475605395	-0.025771587302647666	0.2544799625620195	0.4114071766543873	-0.07471593278478433	0.27952532125378543	0.07799901604148259	-0.09464434777295382	0.32476262187277005	0.03948546893215008	0.04575565930439597	0.3535491348064419	0.039277224033969396	-0.005663002310036241	0.26476598667666124	0.036439416911669395	-0.11925308174387726	0.13191535933697182	1.2892552826666703	-0.026907200846288788	0.13969345804195527	1.5025301093211358	-0.04115773949234013	0.1533686310614742	1.4017676717403598	0.046768236755980616	-0.02002075014064007	1.2094433067036776	-0.013382090113720367	-0.09028324193141353	0.9998962581815765	0.013128005075306322	-0.08823877244112353	0.9700173768866461	0.21559835042781478	0.27420669598689157	1.1984887395811907	-0.05056219420880134	0.33707118708801637	0.9911034868285042	-0.0366029977164466	0.3555740377267971	0.9826443762403931	0.20048930967890985
424	8.48	0.11505855575875858	0.7975325248565963	-0.02169993462440804	0.029549320066305593	0.7857621436301778	-0.01024892328040137	-0.02150190792471461	0.4199585284352993	-0.04931671556875771	-0.07354920411362591	0.0713432775492799	-0.06761638447042076	-0.08294401021364944	0.03494919126033109	0.08692947901411996	-0.12720874090198786	0.033338288897281465	0.04413831111996439	-0.07376697272326779	0.02770688750389074	-0.10186353218523861	0.20512995457384217	0.7887973613562564	-0.029138109161198834	0.25549663493021163	0.4173577460367963	-0.0712245384814264	0.28059631843380006	0.06777531452904244	-0.0919592229628173	0.32085858910484255	0.03470664413321251	0.06924363124320132	0.3504571976038071	0.028840410601158543	0.014885585895375869	0.2706413605716556	0.027924973587778748	-0.11243317038006241	0.1300726401106703	1.295002920185603	-0.03123944124010646	0.1411852908944182	1.5074347688226997	-0.04098994276400742	0.14941505800068478	1.4059588302443848	0.02947861745678189	-0.02654239505901494	1.208525579524911	-0.015322865641948747	-0.09656882666776337	0.9859620863118828	0.03055120676300839	-0.0970893679919898	0.9779970062221099	0.23781291445352876	0.27740009161820417	1.1996726085828204	-0.04215856265668208	0.34390236525462614	0.9807467261137973	-0.03363047124212319	0.36736686803550467	0.9992091244450307	0.16558521811611207
425	8.5	0.11262911397117285	0.7911951063641689	-0.026854406539400293	0.023949126322720796	0.7812806933285364	-0.016079041402975825	-0.023262673560594426	0.41612467340224424	-0.04029521756101507	-0.07300182874600544	0.07161341708191958	-0.0678083339995098	-0.09276515639875652	0.033452827083900606	0.0710547307588059	-0.12645680856760533	0.03215657634159283	0.03229808329024172	-0.07099581041439797	0.033733016489842574	-0.09979846331576418	0.2056646644342592	0.7785663045278304	-0.03246673726701771	0.25520605271242636	0.41371849629329144	-0.07432046792489477	0.28027610265574726	0.07648206655676817	-0.08298969491707799	0.32504665991369114	0.037301085420998734	0.04084590760679573	0.3483679986587714	0.0356689695019411	-0.004427107387026022	0.2669450441646628	0.03597167224749889	-0.1115415485831694	0.130993437222536	1.2905271770705788	-0.029256892315178196	0.14138051121855855	1.5036768410738224	-0.044610236388286414	0.15708396716651404	1.4015034719132462	0.034298309164434354	-0.018547534260503182	1.2113476761507398	-0.017664738557469476	-0.0902256751472824	0.9945723222798648	0.02144405415071709	-0.08273392327644427	1.0053417770395547	0.23859144168886037	0.27383557547316445	1.201352546482812	-0.04710966055605168	0.3397769989328047	0.9881155822540342	-0.024224053777406253	0.3561244448315527	1.023313067615648	0.17102485772079806
426	8.52	0.11498931868532826	0.7921530459126147	-0.027197609519549488	0.026864407340168688	0.7812745340522284	-0.018013691963195275	-0.02396445162859035	0.4188060389863632	-0.04536091991945715	-0.07100509044205414	0.07524411556527984	-0.06981611405626605	-0.08957069290164127	0.03490410029229803	0.07463238891177888	-0.12584313424574095	0.034504313349510096	0.03372919069843564	-0.06990934944196472	0.03632299158164419	-0.10080580630140136	0.20731007975188084	0.7784903391404709	-0.033738770912115496	0.25273877819592866	0.413656749265037	-0.07784976378430579	0.28025458012658305	0.07553759233639715	-0.09378488250471913	0.32010903183978484	0.03718623046735566	0.04467567076157026	0.34946406152849097	0.03550933340069884	-0.002120797534980161	0.26588057710668517	0.03502759881220127	-0.11784210800913353	0.1305468742579734	1.2891261805208147	-0.033638289753655924	0.1421960411020385	1.5055041105903972	-0.04614497904310717	0.15423144507336087	1.4008631796426765	0.03424702778439765	-0.017907403334898597	1.2094838215955714	-0.018051406264655415	-0.09037601512121894	0.990320451360066	0.027286308752062186	-0.09227656108156759	1.0273922319628164	0.21337043434310501	0.2761669618901103	1.1996952783505224	-0.05019246695246597	0.3389535793641706	0.9823890522295744	-0.014575784281933806	0.3566642830571249	1.0463795767079185	0.18276325170707303
